<svg id="Group_8" data-name="Group 8" xmlns="http://www.w3.org/2000/svg" width="17.705" height="16.705" viewBox="0 0 17.705 16.705">
  <path id="Path_5" data-name="Path 5" d="M2.012,4.024H15.693a2.012,2.012,0,0,0,0-4.024H2.012a2.012,2.012,0,0,0,0,4.024Z" fill="#d5d5d5"/>
  <path id="Path_6" data-name="Path 6" d="M12.783,181.333H2.012a2.012,2.012,0,0,0,0,4.024H12.783a2.012,2.012,0,0,0,0-4.024Z" transform="translate(0 -174.992)" fill="#d5d5d5"/>
  <path id="Path_7" data-name="Path 7" d="M8.417,362.667H2.012a2.012,2.012,0,0,0,0,4.024H8.417a2.012,2.012,0,0,0,0-4.024Z" transform="translate(0 -349.986)" fill="#d5d5d5"/>
</svg>
